<mxfile host="app.diagrams.net" modified="2022-08-08T15:47:41.098Z" agent="5.0 (Windows NT 10.0; Win64; x64) AppleWebKit/537.36 (KHTML, like Gecko) Chrome/104.0.0.0 Safari/537.36" etag="5HYr_qXbcXm36U5zTrF_" version="20.2.3" type="github">
  <diagram id="C5RBs43oDa-KdzZeNtuy" name="Page-1">
    <mxGraphModel dx="677" dy="396" grid="1" gridSize="10" guides="1" tooltips="1" connect="1" arrows="1" fold="1" page="1" pageScale="1" pageWidth="827" pageHeight="1169" math="0" shadow="0">
      <root>
        <mxCell id="WIyWlLk6GJQsqaUBKTNV-0" />
        <mxCell id="WIyWlLk6GJQsqaUBKTNV-1" parent="WIyWlLk6GJQsqaUBKTNV-0" />
        <mxCell id="WIyWlLk6GJQsqaUBKTNV-2" value="" style="rounded=0;html=1;jettySize=auto;orthogonalLoop=1;fontSize=11;endArrow=block;endFill=0;endSize=8;strokeWidth=1;shadow=0;labelBackgroundColor=none;edgeStyle=orthogonalEdgeStyle;" parent="WIyWlLk6GJQsqaUBKTNV-1" source="WIyWlLk6GJQsqaUBKTNV-3" target="BzoPtWlY8ugBGljkZ4sm-0" edge="1">
          <mxGeometry relative="1" as="geometry" />
        </mxCell>
        <mxCell id="WIyWlLk6GJQsqaUBKTNV-3" value="Program OKE&lt;br&gt;Polarization" style="rounded=1;whiteSpace=wrap;html=1;fontSize=12;glass=0;strokeWidth=1;shadow=0;" parent="WIyWlLk6GJQsqaUBKTNV-1" vertex="1">
          <mxGeometry x="40" y="30" width="120" height="40" as="geometry" />
        </mxCell>
        <mxCell id="BzoPtWlY8ugBGljkZ4sm-4" style="edgeStyle=orthogonalEdgeStyle;rounded=0;orthogonalLoop=1;jettySize=auto;html=1;exitX=0.625;exitY=1;exitDx=0;exitDy=0;entryX=0;entryY=0.25;entryDx=0;entryDy=0;" edge="1" parent="WIyWlLk6GJQsqaUBKTNV-1" source="BzoPtWlY8ugBGljkZ4sm-0" target="BzoPtWlY8ugBGljkZ4sm-2">
          <mxGeometry relative="1" as="geometry" />
        </mxCell>
        <mxCell id="BzoPtWlY8ugBGljkZ4sm-7" style="edgeStyle=orthogonalEdgeStyle;rounded=0;orthogonalLoop=1;jettySize=auto;html=1;exitX=1;exitY=0.5;exitDx=0;exitDy=0;entryX=0;entryY=0.5;entryDx=0;entryDy=0;" edge="1" parent="WIyWlLk6GJQsqaUBKTNV-1" source="BzoPtWlY8ugBGljkZ4sm-0" target="BzoPtWlY8ugBGljkZ4sm-1">
          <mxGeometry relative="1" as="geometry" />
        </mxCell>
        <mxCell id="BzoPtWlY8ugBGljkZ4sm-0" value="Declare &lt;br&gt;Variables" style="shape=hexagon;perimeter=hexagonPerimeter2;whiteSpace=wrap;html=1;fixedSize=1;" vertex="1" parent="WIyWlLk6GJQsqaUBKTNV-1">
          <mxGeometry x="40" y="97" width="120" height="80" as="geometry" />
        </mxCell>
        <mxCell id="BzoPtWlY8ugBGljkZ4sm-5" style="edgeStyle=orthogonalEdgeStyle;rounded=0;orthogonalLoop=1;jettySize=auto;html=1;exitX=0.375;exitY=1;exitDx=0;exitDy=0;entryX=1;entryY=0.25;entryDx=0;entryDy=0;" edge="1" parent="WIyWlLk6GJQsqaUBKTNV-1" source="BzoPtWlY8ugBGljkZ4sm-1" target="BzoPtWlY8ugBGljkZ4sm-2">
          <mxGeometry relative="1" as="geometry" />
        </mxCell>
        <mxCell id="BzoPtWlY8ugBGljkZ4sm-9" style="edgeStyle=orthogonalEdgeStyle;rounded=0;orthogonalLoop=1;jettySize=auto;html=1;exitX=1;exitY=0.5;exitDx=0;exitDy=0;entryX=0;entryY=0.5;entryDx=0;entryDy=0;entryPerimeter=0;" edge="1" parent="WIyWlLk6GJQsqaUBKTNV-1" source="BzoPtWlY8ugBGljkZ4sm-1" target="BzoPtWlY8ugBGljkZ4sm-10">
          <mxGeometry relative="1" as="geometry">
            <mxPoint x="530" y="150" as="targetPoint" />
          </mxGeometry>
        </mxCell>
        <mxCell id="BzoPtWlY8ugBGljkZ4sm-1" value="Hard coded &lt;br&gt;&lt;span style=&quot;color: rgba(0, 0, 0, 0); font-family: monospace; font-size: 0px; text-align: start;&quot;&gt;%3CmxGraphModel%3E%3Croot%3E%3CmxCell%20id%3D%220%22%2F%3E%3CmxCell%20id%3D%221%22%20parent%3D%220%22%2F%3E%3CmxCell%20id%3D%222%22%20value%3D%22%22%20style%3D%22shape%3Dhexagon%3Bperimeter%3DhexagonPerimeter2%3BwhiteSpace%3Dwrap%3Bhtml%3D1%3BfixedSize%3D1%3B%22%20vertex%3D%221%22%20parent%3D%221%22%3E%3CmxGeometry%20x%3D%22160%22%20y%3D%22170%22%20width%3D%22120%22%20height%3D%2280%22%20as%3D%22geometry%22%2F%3E%3C%2FmxCell%3E%3C%2Froot%3E%3C%2FmxGraphModel%3E&lt;/span&gt;variables" style="shape=hexagon;perimeter=hexagonPerimeter2;whiteSpace=wrap;html=1;fixedSize=1;" vertex="1" parent="WIyWlLk6GJQsqaUBKTNV-1">
          <mxGeometry x="230" y="97" width="120" height="80" as="geometry" />
        </mxCell>
        <mxCell id="BzoPtWlY8ugBGljkZ4sm-20" value="" style="edgeStyle=orthogonalEdgeStyle;rounded=0;orthogonalLoop=1;jettySize=auto;html=1;" edge="1" parent="WIyWlLk6GJQsqaUBKTNV-1" source="BzoPtWlY8ugBGljkZ4sm-2" target="BzoPtWlY8ugBGljkZ4sm-19">
          <mxGeometry relative="1" as="geometry" />
        </mxCell>
        <mxCell id="BzoPtWlY8ugBGljkZ4sm-2" value="Open Files&lt;br&gt;PDB input&lt;br&gt;Outputs" style="shape=hexagon;perimeter=hexagonPerimeter2;whiteSpace=wrap;html=1;fixedSize=1;" vertex="1" parent="WIyWlLk6GJQsqaUBKTNV-1">
          <mxGeometry x="130" y="207" width="120" height="80" as="geometry" />
        </mxCell>
        <mxCell id="BzoPtWlY8ugBGljkZ4sm-11" value="" style="verticalLabelPosition=bottom;verticalAlign=top;html=1;shape=process;whiteSpace=wrap;rounded=1;size=0.14;arcSize=6;" vertex="1" parent="WIyWlLk6GJQsqaUBKTNV-1">
          <mxGeometry x="371" y="309" width="150" height="90" as="geometry" />
        </mxCell>
        <mxCell id="BzoPtWlY8ugBGljkZ4sm-10" value="Currently material explicitly stated&lt;br&gt;rather than read in from the input file&lt;br&gt;such as rdf cut off distance, number of&lt;br&gt;molecules and timesteps" style="strokeWidth=2;html=1;shape=mxgraph.flowchart.annotation_2;align=left;labelPosition=right;pointerEvents=1;" vertex="1" parent="WIyWlLk6GJQsqaUBKTNV-1">
          <mxGeometry x="560" y="50" width="50" height="60" as="geometry" />
        </mxCell>
        <mxCell id="BzoPtWlY8ugBGljkZ4sm-12" value="Read in &lt;br&gt;PDB input file" style="text;html=1;resizable=0;autosize=1;align=center;verticalAlign=middle;points=[];fillColor=none;strokeColor=none;rounded=0;" vertex="1" parent="WIyWlLk6GJQsqaUBKTNV-1">
          <mxGeometry x="396" y="334" width="100" height="40" as="geometry" />
        </mxCell>
        <mxCell id="BzoPtWlY8ugBGljkZ4sm-13" value="" style="verticalLabelPosition=bottom;verticalAlign=top;html=1;shape=process;whiteSpace=wrap;rounded=1;size=0.14;arcSize=6;" vertex="1" parent="WIyWlLk6GJQsqaUBKTNV-1">
          <mxGeometry x="521" y="554" width="150" height="90" as="geometry" />
        </mxCell>
        <mxCell id="BzoPtWlY8ugBGljkZ4sm-15" value="" style="verticalLabelPosition=bottom;verticalAlign=top;html=1;shape=process;whiteSpace=wrap;rounded=1;size=0.14;arcSize=6;" vertex="1" parent="WIyWlLk6GJQsqaUBKTNV-1">
          <mxGeometry x="463" y="761" width="150" height="90" as="geometry" />
        </mxCell>
        <mxCell id="BzoPtWlY8ugBGljkZ4sm-17" value="Find Pi M &lt;br&gt;for each molecule" style="text;html=1;resizable=0;autosize=1;align=center;verticalAlign=middle;points=[];fillColor=none;strokeColor=none;rounded=0;" vertex="1" parent="WIyWlLk6GJQsqaUBKTNV-1">
          <mxGeometry x="536" y="584" width="120" height="40" as="geometry" />
        </mxCell>
        <mxCell id="BzoPtWlY8ugBGljkZ4sm-18" value="Find Pi I&lt;br&gt;for each molecule&lt;br&gt;Interaction w/i&lt;br&gt;cutoff distance" style="text;html=1;resizable=0;autosize=1;align=center;verticalAlign=middle;points=[];fillColor=none;strokeColor=none;rounded=0;" vertex="1" parent="WIyWlLk6GJQsqaUBKTNV-1">
          <mxGeometry x="478" y="771" width="120" height="70" as="geometry" />
        </mxCell>
        <mxCell id="BzoPtWlY8ugBGljkZ4sm-43" style="edgeStyle=orthogonalEdgeStyle;rounded=0;orthogonalLoop=1;jettySize=auto;html=1;entryX=0.5;entryY=1;entryDx=0;entryDy=0;" edge="1" parent="WIyWlLk6GJQsqaUBKTNV-1" source="BzoPtWlY8ugBGljkZ4sm-19" target="BzoPtWlY8ugBGljkZ4sm-19">
          <mxGeometry relative="1" as="geometry">
            <Array as="points">
              <mxPoint x="190" y="298" />
              <mxPoint x="290" y="298" />
              <mxPoint x="290" y="410" />
              <mxPoint x="190" y="410" />
            </Array>
          </mxGeometry>
        </mxCell>
        <mxCell id="BzoPtWlY8ugBGljkZ4sm-19" value="initializing&lt;br&gt;inputs at = 0" style="shape=hexagon;perimeter=hexagonPerimeter2;whiteSpace=wrap;html=1;fixedSize=1;" vertex="1" parent="WIyWlLk6GJQsqaUBKTNV-1">
          <mxGeometry x="145" y="318" width="90" height="72" as="geometry" />
        </mxCell>
        <mxCell id="BzoPtWlY8ugBGljkZ4sm-21" value="t = 0, timesteps" style="rhombus;whiteSpace=wrap;html=1;" vertex="1" parent="WIyWlLk6GJQsqaUBKTNV-1">
          <mxGeometry x="10" y="503" width="80" height="80" as="geometry" />
        </mxCell>
        <mxCell id="BzoPtWlY8ugBGljkZ4sm-25" style="edgeStyle=orthogonalEdgeStyle;rounded=0;orthogonalLoop=1;jettySize=auto;html=1;exitX=0;exitY=1;exitDx=0;exitDy=0;" edge="1" parent="WIyWlLk6GJQsqaUBKTNV-1" source="BzoPtWlY8ugBGljkZ4sm-22" target="BzoPtWlY8ugBGljkZ4sm-24">
          <mxGeometry relative="1" as="geometry" />
        </mxCell>
        <mxCell id="BzoPtWlY8ugBGljkZ4sm-22" value="do" style="rhombus;whiteSpace=wrap;html=1;" vertex="1" parent="WIyWlLk6GJQsqaUBKTNV-1">
          <mxGeometry x="210" y="470" width="60" height="53" as="geometry" />
        </mxCell>
        <mxCell id="BzoPtWlY8ugBGljkZ4sm-24" value="Define&lt;br&gt;Prox to pbc" style="shape=hexagon;perimeter=hexagonPerimeter2;whiteSpace=wrap;html=1;fixedSize=1;" vertex="1" parent="WIyWlLk6GJQsqaUBKTNV-1">
          <mxGeometry x="145" y="559" width="90" height="72" as="geometry" />
        </mxCell>
        <mxCell id="BzoPtWlY8ugBGljkZ4sm-26" value="do&lt;br&gt;i = 2,&amp;nbsp; total &lt;br&gt;atom number" style="rhombus;whiteSpace=wrap;html=1;" vertex="1" parent="WIyWlLk6GJQsqaUBKTNV-1">
          <mxGeometry x="270" y="548" width="120" height="112" as="geometry" />
        </mxCell>
        <mxCell id="BzoPtWlY8ugBGljkZ4sm-37" value="" style="endArrow=classic;html=1;rounded=0;exitX=0.5;exitY=1;exitDx=0;exitDy=0;entryX=1;entryY=1;entryDx=0;entryDy=0;" edge="1" parent="WIyWlLk6GJQsqaUBKTNV-1">
          <mxGeometry relative="1" as="geometry">
            <mxPoint x="597" y="643" as="sourcePoint" />
            <mxPoint x="360.9999999999998" y="631" as="targetPoint" />
            <Array as="points">
              <mxPoint x="560" y="670" />
              <mxPoint x="440" y="670" />
            </Array>
          </mxGeometry>
        </mxCell>
        <mxCell id="BzoPtWlY8ugBGljkZ4sm-38" value="i + 1" style="edgeLabel;resizable=0;html=1;align=center;verticalAlign=middle;" connectable="0" vertex="1" parent="BzoPtWlY8ugBGljkZ4sm-37">
          <mxGeometry relative="1" as="geometry">
            <mxPoint x="11" as="offset" />
          </mxGeometry>
        </mxCell>
        <mxCell id="BzoPtWlY8ugBGljkZ4sm-39" value="i &amp;lt; total atoms" style="edgeLabel;resizable=0;html=1;align=center;verticalAlign=middle;" connectable="0" vertex="1" parent="WIyWlLk6GJQsqaUBKTNV-1">
          <mxGeometry x="535.9999247372061" y="640" as="geometry">
            <mxPoint x="-57" y="-120" as="offset" />
          </mxGeometry>
        </mxCell>
        <mxCell id="BzoPtWlY8ugBGljkZ4sm-40" value="" style="endArrow=classic;html=1;rounded=0;exitX=1;exitY=0;exitDx=0;exitDy=0;" edge="1" parent="WIyWlLk6GJQsqaUBKTNV-1" source="BzoPtWlY8ugBGljkZ4sm-26">
          <mxGeometry width="50" height="50" relative="1" as="geometry">
            <mxPoint x="380" y="573" as="sourcePoint" />
            <mxPoint x="430" y="520" as="targetPoint" />
            <Array as="points" />
          </mxGeometry>
        </mxCell>
        <mxCell id="BzoPtWlY8ugBGljkZ4sm-41" value="" style="endArrow=classic;html=1;rounded=0;entryX=0.5;entryY=0;entryDx=0;entryDy=0;" edge="1" parent="WIyWlLk6GJQsqaUBKTNV-1" target="BzoPtWlY8ugBGljkZ4sm-13">
          <mxGeometry width="50" height="50" relative="1" as="geometry">
            <mxPoint x="520" y="520" as="sourcePoint" />
            <mxPoint x="430" y="550" as="targetPoint" />
          </mxGeometry>
        </mxCell>
        <mxCell id="BzoPtWlY8ugBGljkZ4sm-45" style="edgeStyle=orthogonalEdgeStyle;rounded=0;orthogonalLoop=1;jettySize=auto;html=1;exitX=1;exitY=0.5;exitDx=0;exitDy=0;entryX=0;entryY=0.5;entryDx=0;entryDy=0;" edge="1" parent="WIyWlLk6GJQsqaUBKTNV-1" source="BzoPtWlY8ugBGljkZ4sm-44" target="BzoPtWlY8ugBGljkZ4sm-11">
          <mxGeometry relative="1" as="geometry" />
        </mxCell>
        <mxCell id="BzoPtWlY8ugBGljkZ4sm-44" value="do" style="rhombus;whiteSpace=wrap;html=1;" vertex="1" parent="WIyWlLk6GJQsqaUBKTNV-1">
          <mxGeometry x="250" y="314" width="80" height="80" as="geometry" />
        </mxCell>
        <mxCell id="BzoPtWlY8ugBGljkZ4sm-46" value="" style="endArrow=classic;html=1;rounded=0;entryX=0.5;entryY=0;entryDx=0;entryDy=0;" edge="1" parent="WIyWlLk6GJQsqaUBKTNV-1" target="BzoPtWlY8ugBGljkZ4sm-22">
          <mxGeometry width="50" height="50" relative="1" as="geometry">
            <mxPoint x="240" y="410" as="sourcePoint" />
            <mxPoint x="380" y="490" as="targetPoint" />
            <Array as="points">
              <mxPoint x="240" y="440" />
            </Array>
          </mxGeometry>
        </mxCell>
        <mxCell id="BzoPtWlY8ugBGljkZ4sm-47" value="" style="endArrow=classic;html=1;rounded=0;exitX=1;exitY=1;exitDx=0;exitDy=0;entryX=0;entryY=0;entryDx=0;entryDy=0;" edge="1" parent="WIyWlLk6GJQsqaUBKTNV-1" source="BzoPtWlY8ugBGljkZ4sm-22" target="BzoPtWlY8ugBGljkZ4sm-26">
          <mxGeometry width="50" height="50" relative="1" as="geometry">
            <mxPoint x="380" y="650" as="sourcePoint" />
            <mxPoint x="430" y="600" as="targetPoint" />
          </mxGeometry>
        </mxCell>
      </root>
    </mxGraphModel>
  </diagram>
</mxfile>
